Coordinates
version=1
nRows=18
nColumns=26
inDegrees=yes

Units are S.I. units (second, meters, Newtons, ...)
If the header above contains a line with 'inDegrees', this indicates whether rotational values are in degrees (yes) or radians (no).

endheader
time	pelvis_tilt	pelvis_list	pelvis_rotation	pelvis_tx	pelvis_ty	pelvis_tz	hip_flexion_r	hip_adduction_r	hip_rotation_r	knee_angle_r	knee_angle_r_beta	hip_flexion_l	hip_adduction_l	hip_rotation_l	knee_angle_l	knee_angle_l_beta	lumbar_extension	lumbar_bending	lumbar_rotation	ankle_angle_r	subtalar_angle_r	mtp_angle_r	ankle_angle_l	subtalar_angle_l	mtp_angle_l
      0.41000000	     -3.74852130	     -5.61653065	      6.23008027	     -0.31632905	      0.87694856	     -0.22742911	      7.28509278	      7.67504216	    -13.32112899	      2.21500189	      0.03865908	     24.69294654	    -12.73673207	    -10.29257633	     63.63605368	      1.11065866	     -6.76626513	      5.13991409	     -1.40465507	      5.50525347	     -2.40874011	      0.00000000	     -3.07667334	    -19.36289294	      0.00000000
      0.42000000	     -3.53172874	     -5.33016778	      6.01489719	     -0.30785926	      0.87788404	     -0.22667052	      6.45347255	      7.55383269	    -13.02403735	      2.31807459	      0.04045803	     25.48341700	    -12.21843628	    -10.77076422	     62.51139764	      1.09102971	     -7.16525454	      4.76315239	     -1.05180093	      5.99954831	     -2.49874675	      0.00000000	     -1.73794869	    -19.33733841	      0.00000000
      0.43000000	     -3.31568306	     -4.98232863	      5.71890487	     -0.29936010	      0.87883141	     -0.22590034	      5.63493714	      7.35223193	    -12.70900612	      2.46775144	      0.04307039	     26.13076739	    -11.64280537	    -11.36824702	     61.02979629	      1.06517089	     -7.56683677	      4.32752250	     -0.64713063	      6.49902046	     -2.54692754	      0.00000000	     -0.60646495	    -19.30463517	      0.00000000
      0.44000000	     -3.13880244	     -4.64467539	      5.38755118	     -0.29085100	      0.87966375	     -0.22509140	      4.87818428	      7.14771955	    -12.44251780	      2.64281023	      0.04612574	     26.71774955	    -11.08341241	    -12.02185390	     59.22695401	      1.03370535	     -7.91142861	      3.87934894	     -0.22858505	      7.01945615	     -2.56121438	      0.00000000	      0.23157873	    -19.26895855	      0.00000000
      0.45000000	     -2.99879390	     -4.29633900	      5.01738294	     -0.28231770	      0.88037231	     -0.22426323	      4.17577675	      6.91353384	    -12.17961341	      2.84503376	      0.04965521	     27.23421836	    -10.51005560	    -12.70724096	     57.12821185	      0.99707539	     -8.21037845	      3.40392200	      0.19554423	      7.54411815	     -2.54845525	      0.00000000	      0.87162794	    -19.22385950	      0.00000000
      0.46000000	     -2.89355118	     -3.96955071	      4.62157191	     -0.27375802	      0.88093544	     -0.22346354	      3.52789455	      6.68275115	    -11.94428966	      3.06695699	      0.05352850	     27.69330002	     -9.96639180	    -13.43715197	     54.75586861	      0.95567019	     -8.45603998	      2.95475998	      0.62308369	      8.09045577	     -2.51640790	      0.00000000	      1.31074373	    -19.17019090	      0.00000000
      0.47000000	     -2.82240455	     -3.66275405	      4.20753557	     -0.26519132	      0.88135381	     -0.22273733	      2.93461110	      6.45018872	    -11.68284103	      3.32448275	      0.05802317	     28.09019325	     -9.43230609	    -14.15020222	     52.12827183	      0.90980998	     -8.65124116	      2.53771899	      1.04779549	      8.62752367	     -2.44632247	      0.00000000	      1.58406385	    -19.11037545	      0.00000000
      0.48000000	     -2.78865551	     -3.37447275	      3.76207315	     -0.25657377	      0.88159666	     -0.22200664	      2.39070753	      6.22172984	    -11.41650834	      3.60322533	      0.06288815	     28.41562763	     -8.92613523	    -14.88014119	     49.23705304	      0.85934869	     -8.79423813	      2.13704158	      1.47199181	      9.18105970	     -2.38222608	      0.00000000	      1.70198525	    -19.03958907	      0.00000000
      0.49000000	     -2.75561835	     -3.11062826	      3.31016681	     -0.24790964	      0.88171889	     -0.22140563	      1.86101509	      5.99501855	    -11.21106128	      3.90574866	      0.06816817	     28.64565056	     -8.44100796	    -15.60523654	     46.13009313	      0.80512201	     -8.92809660	      1.78037343	      1.87761651	      9.82166579	     -2.13291719	      0.00000000	      1.70711867	    -18.95810384	      0.00000000
      0.50000000	     -2.82801005	     -2.88683658	      2.83475620	     -0.23927535	      0.88155664	     -0.22082699	      1.47513709	      5.79979463	    -10.85702654	      4.23303420	      0.07388038	     28.91328837	     -7.99889753	    -16.30683706	     42.84420816	      0.74777250	     -8.93470965	      1.46797199	      2.26811141	     10.31399490	     -2.23774024	      0.00000000	      1.59223825	    -18.84867285	      0.00000000
      0.51000000	     -2.97655636	     -2.71203246	      2.37473656	     -0.23059595	      0.88113677	     -0.22035228	      1.16906428	      5.64612414	    -10.46477046	      4.53438041	      0.07913987	     29.18704827	     -7.59635944	    -16.95763218	     39.39490122	      0.68757073	     -8.82808499	      1.21359616	      2.59070314	     10.76195998	     -2.41095573	      0.00000000	      1.44659101	    -18.66793371	      0.00000000
      0.52000000	     -3.12267943	     -2.55405935	      1.88625172	     -0.22192533	      0.88059274	     -0.21994317	      0.88702759	      5.49922942	    -10.02419092	      4.88651772	      0.08528582	     29.36306809	     -7.22007516	    -17.60697687	     35.77925480	      0.62446580	     -8.72925791	      0.98457566	      2.93435594	     11.22682705	     -2.60616092	      0.00000000	      1.26751251	    -18.45690011	      0.00000000
      0.53000000	     -3.22337395	     -2.41732963	      1.36371718	     -0.21320793	      0.88001391	     -0.21964183	      0.59460132	      5.35297073	     -9.61209248	      5.32972294	      0.09302121	     29.38219879	     -6.87864589	    -18.24152148	     32.00717889	      0.55863066	     -8.71243853	      0.81695688	      3.33678548	     11.80160460	     -2.71157026	      0.00000000	      0.87792863	    -18.25640124	      0.00000000
      0.54000000	     -3.43115616	     -2.30271848	      0.86174418	     -0.20445040	      0.87912013	     -0.21943877	      0.43073799	      5.22403420	     -9.17151969	      5.77691775	      0.10082624	     29.45387508	     -6.54795970	    -18.81151472	     28.17459537	      0.49173945	     -8.54100508	      0.66326431	      3.64124414	     12.31911603	     -2.95969368	      0.00000000	      0.60512603	    -17.87740993	      0.00000000
      0.55000000	     -3.70384410	     -2.25165959	      0.38885747	     -0.19567681	      0.87796580	     -0.21935581	      0.35444476	      5.16052761	     -8.69178452	      6.25143937	      0.10910820	     29.56378523	     -6.28037839	    -19.23872363	     24.38434674	      0.42558714	     -8.28727664	      0.60509804	      3.86983545	     12.75182148	     -3.41046807	      0.00000000	      0.53426324	    -17.17036869	      0.00000000
      0.56000000	     -3.89870490	     -2.16243995	     -0.16348318	     -0.18682489	      0.87683221	     -0.21929453	      0.21761854	      5.03855421	     -8.15568557	      6.79985188	      0.11867980	     29.46675341	     -6.01366070	    -19.72389725	     20.53247540	      0.35835930	     -8.13081992	      0.50428146	      4.24392692	     13.31675697	     -3.71663196	      0.00000000	      0.29530910	    -16.43220712	      0.00000000
      0.57000000	     -4.21108665	     -2.14458648	     -0.64109318	     -0.17790669	      0.87533903	     -0.21938547	      0.21998526	      4.99838454	     -7.71127481	      7.35128213	      0.12830408	     29.51086486	     -5.82291968	    -19.97944428	     16.92244278	      0.29535234	     -7.81682938	      0.49839751	      4.41160718	     13.76163694	     -4.27922849	      0.00000000	      0.48564338	    -15.13413201	      0.00000000
      0.58000000	     -4.44327263	     -2.09704624	     -1.24839687	     -0.16888236	      0.87386610	     -0.21931542	      0.16154626	      4.92142581	     -7.17443578	      7.98179814	      0.13930866	     29.36532238	     -5.69982676	    -20.22492404	     13.45498944	      0.23483387	     -7.58261271	      0.40036409	      4.71851027	     14.26668183	     -4.77920942	      0.00000000	      0.75544892	    -13.57702540	      0.00000000
